/* XPM */
static const char * apps_xpm[] = {
"48 48 255 2",
"  	c None",
". 	c #0404FF",
"+ 	c #2B2BFF",
"@ 	c #1D1DFF",
"# 	c #0D0DFF",
"$ 	c #0101FF",
"% 	c #0000FF",
"& 	c #0606FF",
"* 	c #4444FF",
"= 	c #0909FF",
"- 	c #2A2AFF",
"; 	c #2626FF",
"> 	c #3333FF",
", 	c #0202FE",
"' 	c #0101FE",
") 	c #1717F7",
"! 	c #1818F7",
"~ 	c #1414F8",
"{ 	c #0B0BFB",
"] 	c #0C0CFB",
"^ 	c #1515F8",
"/ 	c #1616F8",
"( 	c #0D0DFB",
"_ 	c #0303FE",
": 	c #0F0FF0",
"< 	c #1B1BE4",
"[ 	c #2020DF",
"} 	c #1F1FE0",
"| 	c #4949E7",
"1 	c #6161DF",
"2 	c #5656E3",
"3 	c #2E2EF0",
"4 	c #2F2FEF",
"5 	c #5858E2",
"6 	c #5A5AE2",
"7 	c #3131EF",
"8 	c #0707FD",
"9 	c #5B5BE1",
"0 	c #3838EC",
"a 	c #0E0EFA",
"b 	c #0202FD",
"c 	c #3D3DC2",
"d 	c #72728D",
"e 	c #80807F",
"f 	c #61619E",
"g 	c #0E0EDF",
"h 	c #1919F7",
"i 	c #6666DE",
"j 	c #A1A1CA",
"k 	c #9C9CCC",
"l 	c #5959E2",
"m 	c #9D9DCC",
"n 	c #9D9DCB",
"o 	c #5555E3",
"p 	c #9F9FCB",
"q 	c #1010EF",
"r 	c #75758A",
"s 	c #CFCF30",
"t 	c #D6D629",
"u 	c #878778",
"v 	c #1B1BDD",
"w 	c #6E6EDB",
"x 	c #BCBCC1",
"y 	c #C2C2BF",
"z 	c #8080D5",
"A 	c #0909FC",
"B 	c #7F7FD5",
"C 	c #C1C1C0",
"D 	c #BBBBC2",
"E 	c #6464DE",
"F 	c #0F0FFA",
"G 	c #6565DE",
"H 	c #BDBDC1",
"I 	c #C4C4BF",
"J 	c #8181D5",
"K 	c #BFBFC1",
"L 	c #7070DC",
"M 	c #1919F8",
"N 	c #0E0EF0",
"O 	c #4343BC",
"P 	c #ABAB54",
"Q 	c #FFFF00",
"R 	c #F9F906",
"S 	c #91916E",
"T 	c #2121DE",
"U 	c #6969DC",
"V 	c #B8B8C3",
"W 	c #CDCDBC",
"X 	c #AAAAC7",
"Y 	c #7676D8",
"Z 	c #4C4CE6",
"` 	c #1C1CF6",
" .	c #CCCCBC",
"..	c #B7B7C3",
"+.	c #5F5FE0",
"@.	c #1010FA",
"#.	c #6767DD",
"$.	c #C3C3BF",
"%.	c #D7D7B8",
"&.	c #B0B0C5",
"*.	c #7777D8",
"=.	c #4B4BE6",
"-.	c #C3C3C0",
";.	c #6B6BE2",
">.	c #1313FE",
",.	c #0303F3",
"'.	c #3232C4",
").	c #747489",
"!.	c #AAAA55",
"~.	c #EAEA15",
"{.	c #F4F40B",
"].	c #8B8B74",
"^.	c #6262DF",
"/.	c #ACACC7",
"(.	c #B9B9C2",
"_.	c #9090D0",
":.	c #4242E9",
"<.	c #5D5DE1",
"[.	c #B4B4C4",
"}.	c #D3D3BA",
"|.	c #BABAC2",
"1.	c #8F8FD0",
"2.	c #4141EA",
"3.	c #B4B4C6",
"4.	c #5A5AEC",
"5.	c #0B0BFF",
"6.	c #1111E6",
"7.	c #6A6A8D",
"8.	c #CFCF2F",
"9.	c #E4E41B",
"0.	c #81817E",
"a.	c #A8A8C8",
"b.	c #CFCFBB",
"c.	c #DEDEB6",
"d.	c #D8D8B8",
"e.	c #B6B6C3",
"f.	c #6868DD",
"g.	c #2323F4",
"h.	c #A6A6C8",
"i.	c #4646E8",
"j.	c #D1D1BA",
"k.	c #D5D5B9",
"l.	c #6969DD",
"m.	c #9090D2",
"n.	c #4343F3",
"o.	c #1313E6",
"p.	c #6C6C8C",
"q.	c #CFCF2E",
"r.	c #E1E11E",
"s.	c #1717F8",
"t.	c #5E5EE0",
"u.	c #E0E0B6",
"v.	c #CACABD",
"w.	c #9696CE",
"x.	c #1111F9",
"y.	c #7575D8",
"z.	c #D2D2BA",
"A.	c #4C4CE7",
"B.	c #2020FB",
"C.	c #0202FF",
"D.	c #0A0AF1",
"E.	c #3B3BC0",
"F.	c #777788",
"G.	c #A8A857",
"H.	c #E0E01F",
"I.	c #E7E718",
"J.	c #868679",
"K.	c #D0D0BB",
"L.	c #C9C9BD",
"M.	c #ABABC7",
"N.	c #0808FD",
"O.	c #2F2FF0",
"P.	c #ADADC6",
"Q.	c #0000FE",
"R.	c #0202FC",
"S.	c #1111EE",
"T.	c #4141BE",
"U.	c #A2A25D",
"V.	c #EDED12",
"W.	c #8D8D72",
"X.	c #C8C8BD",
"Y.	c #BEBEC1",
"Z.	c #ACACC6",
"`.	c #CBCBBC",
" +	c #0A0AFC",
".+	c #9191CF",
"++	c #C7C7BE",
"@+	c #1414EB",
"#+	c #F0F00F",
"$+	c #90906F",
"%+	c #2222DD",
"&+	c #AEAEC6",
"*+	c #9494CE",
"=+	c #6A6ADC",
"-+	c #9E9ECB",
";+	c #AFAFC6",
">+	c #2222F4",
",+	c #4D4DE6",
"'+	c #7474D9",
")+	c #A4A4C9",
"!+	c #C6C6BE",
"~+	c #1313EC",
"{+	c #6B6BDC",
"]+	c #B3B3C4",
"^+	c #B5B5C4",
"/+	c #6C6CDC",
"(+	c #2323F3",
"_+	c #2525F3",
":+	c #7373D9",
"<+	c #C0C0C0",
"[+	c #7979D7",
"}+	c #8E8E71",
"|+	c #EFEF10",
"1+	c #6D6DDB",
"2+	c #B1B1C5",
"3+	c #0505FD",
"4+	c #9B9BCC",
"5+	c #6666DD",
"6+	c #8F8F70",
"7+	c #2424F3",
"8+	c #5757E2",
"9+	c #1313F9",
"0+	c #1A1AF7",
"a+	c #1A1AF6",
"b+	c #F2F20D",
"c+	c #F1F10E",
"d+	c #1B1BF6",
"e+	c #BFBFC0",
"f+	c #2424DB",
"g+	c #999966",
"h+	c #FCFC03",
"i+	c #94946B",
"j+	c #7272DA",
"k+	c #7272D9",
"l+	c #989867",
"m+	c #FEFE01",
"n+	c #FBFB04",
"o+	c #93936C",
"p+	c #1B1BDC",
"q+	c #1E1EE1",
"r+	c #7D7D82",
"s+	c #D1D12E",
"t+	c #D5D52A",
"u+	c #1010DB",
"v+	c #3434EE",
"w+	c #5A5AE1",
"x+	c #3636ED",
"y+	c #4646B9",
"z+	c #74748B",
"A+	c #7F7F80",
"B+	c #5F5F9F",
"C+	c #0202DD",
"D+	c #1F1FFE",
"E+	c #0404FB",
"F+	c #1313DE",
"                                  . + @ # . $ % % $ . # @ + .                                   ",
"                            & * = % % % % % % % % % % % % % % = -                               ",
"                          @ % % % % % % % % % % % % % % % % % % % % @                           ",
"                      ; % % % % % % % % % % % % % % % % % % % % % % % % ;                       ",
"                    = % % % % % % % % % % % % % % % % % % % % % % % % % % =                     ",
"                  % % % % % % % % % % % % % % % % % % % % % % % % % % % % % % >                 ",
"                % % % % % % % % % % % % % % % % % % % % % % % % % % % % % % % % -               ",
"              % % % % % % % % % % % % % % % % % % % % % % % % % % % % % % % % % % -             ",
"            % % % % % % % % % % % % % % % % % % % % % % % % % % % % % % % % % % % % >           ",
"          % % % % % % % % % % % % % % % % % % % % % % % % % % % % % % % % % % % % % %           ",
"        = % % % % % % % % % % % % % % % % % % % % % % % % % % % % % % % % % % % % % % =         ",
"      ; % % % % % % % % % % % % % % % % % % % % % % % % % % % % % % % % % % % % % % % % ;       ",
"      % % % % % $ $ % % $ $ % % % % % % % % % % % % $ $ % % $ $ % % % % % % $ , ' % % % %       ",
"    @ % % % % % $ $ % % $ $ % % % % % % % % % % % % $ $ % % $ $ % % % % % % $ , ' % % % % @     ",
"    % ) ! ~ { $ % % % % % % $ ] ^ / ] , , ] / ^ ] $ % % % % % % $ ] ^ / ( _ % % % ' : < [ }     ",
"  - ) | 1 2 3 $ % % % % % % $ 4 5 6 7 8 8 7 6 5 4 $ % % % % % % $ 4 5 9 0 a % % % b c d e f g   ",
"  = h i j k 5 ] % % % % % % ] l m n o ( ( o n m l ] % % % % % % ] l m p 1 ) % % % q r s t u v   ",
"  % h w x y z 7 A % % % % A 7 B C D E F F G H I J 7 A % % % % A 7 J I K L M % % N O P Q R S T   ",
"> % ! U V W X Y Z ` % % ` Z Y X  ...+.( @.#.$.%.&.*.=.` % % ` =.*.&.%.-.;.>.,.'.).!.~.Q {.].[ > ",
"@ % ) ^./.W W (._.:.% % :._.(.W  .X 2 ] a <.[.%.}.|.1.2.% % 2.1.|.}.%.3.4.5.6.7.8.Q Q Q 9.0.} @ ",
"# % ) +.a.b.c.d.e.f.g.g.f.e.d.c.b.h.o ( A i._.(.j.k...l.g.g.l...k.j.(.m.n.& o.p.q.Q Q Q r.e } # ",
". % s.t.a.b.u.c.v.w.f.f.w.v.c.u.b.h.5 x.% ` =.y.X z.b.k l.l.k b.z.X y.A.B.C.D.E.F.G.H.Q I.J.[ . ",
"$ % ) +.a.W k.K.L.|.M.M.|.L.K.k.W a.t./ % % N.O.Y |.}.I P.P.I }.|.Y O.A % % Q.R.S.T.U.{.V.W.T $ ",
"% % ) 1 X X.Y./.Z.x `.`.x Z./.Y.X.X ^.! % % %  +Z .+V ++`.`.++V .+Z  +% % % % % % @+u V.#+$+%+% ",
"% % ! i &+Y.*+#.=+-+b.b.-+=+#.*+Y.;+#.h % % % % >+,+'+)+!+!+)+'+,+>+% % % % % % % ~+J.V.#+$+%+% ",
"$ % h {+]+^+/+(+_+:+<+<+:+_+(+/+^+]+{+h % % % % %  +O.[+V V [+O. +% % % % % % % % } }+|+|+$+%+$ ",
". % h 1+^+2+9 3+$ ,+4+4+,+$ 3+9 2+^+1+h % % % % % % F 5+]+]+5+F % % % $ $ % % % % %+6+|+|+6+%+. ",
"# % h 1+^+2++.A % 7+8+8+7+% A +.2+^+1+h % % % % % % a i ]+]+i a % % % $ $ % % % % %+6+|+|+6+%+# ",
"@ % h /+[.]+U / % % 9+9+% % / U ]+[./+h % % % % % % ) {+[.[.{+) % % % % % % % % % %+6+|+|+6+%+@ ",
"> % 0+1+e.e.w a+% % % % % % a+w e.e.1+0+% % % % % % 0+1+e.e.1+0+% % % % % % % % % %+S b+c+$+%+> ",
"  % d+:+e+e+'+` % % % % % % ` '+e+e+:+d+% % % % % % d+:+e+e+:+d+% % % % % % % % % f+g+Q h+i+%+  ",
"  = d+j+Y.Y.k+d+% % % % % % d+k+Y.Y.j+d+% % % % % % d+j+Y.Y.j+d+% % % % % % % % % f+l+m+n+o+p+  ",
"  - / t.-+-++./ % % % % % % / +.-+-++./ % % % % % % / +.-+-++./ % % % % % % % % % q+r+s+t+J.u+  ",
"    ] v+l w+x+( % % % % % % ( x+w+w+x+( % % % % % % ( x+w+w+x+( % % % % % % % % % S.y+z+A+B+C+  ",
"    D+( / / ( _ % % % % % % _ ( / / ( _ % % % % % % _ ( / / ( _ % % % % % % % % % E+q < [ F+    ",
"      % % % % % $ $ % % $ $ % % % % % % $ $ % % $ $ % % % % % % $ $ % % % % % ' ' % % % %       ",
"      ; % % % % $ $ % % $ $ % % % % % % $ $ % % $ $ % % % % % % $ $ % % % % % ' ' % % % ;       ",
"        = % % % % % % % % % % % % % % % % % % % % % % % % % % % % % % % % % % % % % % =         ",
"          % % % % % % % % % % % % % % % % % % % % % % % % % % % % % % % % % % % % % %           ",
"          > % % % % % % % % % % % % % % % % % % % % % % % % % % % % % % % % % % % % >           ",
"            - % % % % % % % % % % % % % % % % % % % % % % % % % % % % % % % % % % -             ",
"              - % % % % % % % % % % % % % % % % % % % % % % % % % % % % % % % % -               ",
"                > % % % % % % % % % % % % % % % % % % % % % % % % % % % % % % >                 ",
"                    = % % % % % % % % % % % % % % % % % % % % % % % % % % =                     ",
"                      ; % % % % % % % % % % % % % % % % % % % % % % % % ;                       ",
"                            % % % % % % % % % % % % % % % % % % % % @                           ",
"                              - = % % % % % % % % % % % % % % = -                               ",
"                                    > @ # . $ % % $ . # @ >                                     "};
