/* XPM */
static const char * apps_xpm[] = {
"48 48 239 2",
"  	c None",
". 	c #0000FF",
"+ 	c #0101FF",
"@ 	c #0202FE",
"# 	c #0101FE",
"$ 	c #1717F7",
"% 	c #1818F7",
"& 	c #1414F8",
"* 	c #0B0BFB",
"= 	c #0C0CFB",
"- 	c #1515F8",
"; 	c #1616F8",
"> 	c #0D0DFB",
", 	c #0303FE",
"' 	c #0F0FF0",
") 	c #1B1BE4",
"! 	c #2020DF",
"~ 	c #1F1FE0",
"{ 	c #4949E7",
"] 	c #6161DF",
"^ 	c #5656E3",
"/ 	c #2E2EF0",
"( 	c #2F2FEF",
"_ 	c #5858E2",
": 	c #5A5AE2",
"< 	c #3131EF",
"[ 	c #0707FD",
"} 	c #5B5BE1",
"| 	c #3838EC",
"1 	c #0E0EFA",
"2 	c #0202FD",
"3 	c #3D3DC2",
"4 	c #72728D",
"5 	c #80807F",
"6 	c #61619E",
"7 	c #1E1EE1",
"8 	c #1919F7",
"9 	c #6666DE",
"0 	c #A1A1CA",
"a 	c #9C9CCC",
"b 	c #5959E2",
"c 	c #9D9DCC",
"d 	c #9D9DCB",
"e 	c #5555E3",
"f 	c #9F9FCB",
"g 	c #1010EF",
"h 	c #75758A",
"i 	c #CFCF30",
"j 	c #D6D629",
"k 	c #878778",
"l 	c #2121DE",
"m 	c #6E6EDB",
"n 	c #BCBCC1",
"o 	c #C2C2BF",
"p 	c #8080D5",
"q 	c #0909FC",
"r 	c #7F7FD5",
"s 	c #C1C1C0",
"t 	c #BBBBC2",
"u 	c #6464DE",
"v 	c #0F0FFA",
"w 	c #6565DE",
"x 	c #BDBDC1",
"y 	c #C4C4BF",
"z 	c #8181D5",
"A 	c #BFBFC1",
"B 	c #7070DC",
"C 	c #1919F8",
"D 	c #0E0EF0",
"E 	c #4343BC",
"F 	c #ABAB54",
"G 	c #FFFF00",
"H 	c #F9F906",
"I 	c #91916E",
"J 	c #6969DC",
"K 	c #B8B8C3",
"L 	c #CDCDBC",
"M 	c #AAAAC7",
"N 	c #7676D8",
"O 	c #4C4CE6",
"P 	c #1C1CF6",
"Q 	c #CCCCBC",
"R 	c #B7B7C3",
"S 	c #5F5FE0",
"T 	c #1010FA",
"U 	c #6767DD",
"V 	c #C3C3BF",
"W 	c #D7D7B8",
"X 	c #B0B0C5",
"Y 	c #7777D8",
"Z 	c #4B4BE6",
"` 	c #C3C3C0",
" .	c #6B6BE2",
"..	c #1313FE",
"+.	c #0303F3",
"@.	c #3232C4",
"#.	c #747489",
"$.	c #AAAA55",
"%.	c #EAEA15",
"&.	c #F4F40B",
"*.	c #8B8B74",
"=.	c #6262DF",
"-.	c #ACACC7",
";.	c #B9B9C2",
">.	c #9090D0",
",.	c #4242E9",
"'.	c #5D5DE1",
").	c #B4B4C4",
"!.	c #D3D3BA",
"~.	c #BABAC2",
"{.	c #8F8FD0",
"].	c #4141EA",
"^.	c #B4B4C6",
"/.	c #5A5AEC",
"(.	c #0B0BFF",
"_.	c #1111E6",
":.	c #6A6A8D",
"<.	c #CFCF2F",
"[.	c #E4E41B",
"}.	c #81817E",
"|.	c #A8A8C8",
"1.	c #CFCFBB",
"2.	c #DEDEB6",
"3.	c #D8D8B8",
"4.	c #B6B6C3",
"5.	c #6868DD",
"6.	c #2323F4",
"7.	c #A6A6C8",
"8.	c #4646E8",
"9.	c #D1D1BA",
"0.	c #D5D5B9",
"a.	c #6969DD",
"b.	c #9090D2",
"c.	c #4343F3",
"d.	c #0606FF",
"e.	c #1313E6",
"f.	c #6C6C8C",
"g.	c #CFCF2E",
"h.	c #E1E11E",
"i.	c #1717F8",
"j.	c #5E5EE0",
"k.	c #E0E0B6",
"l.	c #CACABD",
"m.	c #9696CE",
"n.	c #1111F9",
"o.	c #7575D8",
"p.	c #D2D2BA",
"q.	c #4C4CE7",
"r.	c #2020FB",
"s.	c #0202FF",
"t.	c #0A0AF1",
"u.	c #3B3BC0",
"v.	c #777788",
"w.	c #A8A857",
"x.	c #E0E01F",
"y.	c #E7E718",
"z.	c #868679",
"A.	c #D0D0BB",
"B.	c #C9C9BD",
"C.	c #ABABC7",
"D.	c #0808FD",
"E.	c #2F2FF0",
"F.	c #ADADC6",
"G.	c #0000FE",
"H.	c #0202FC",
"I.	c #1111EE",
"J.	c #4141BE",
"K.	c #A2A25D",
"L.	c #EDED12",
"M.	c #8D8D72",
"N.	c #C8C8BD",
"O.	c #BEBEC1",
"P.	c #ACACC6",
"Q.	c #CBCBBC",
"R.	c #0A0AFC",
"S.	c #9191CF",
"T.	c #C7C7BE",
"U.	c #1414EB",
"V.	c #F0F00F",
"W.	c #90906F",
"X.	c #2222DD",
"Y.	c #AEAEC6",
"Z.	c #9494CE",
"`.	c #6A6ADC",
" +	c #9E9ECB",
".+	c #AFAFC6",
"++	c #2222F4",
"@+	c #4D4DE6",
"#+	c #7474D9",
"$+	c #A4A4C9",
"%+	c #C6C6BE",
"&+	c #1313EC",
"*+	c #6B6BDC",
"=+	c #B3B3C4",
"-+	c #B5B5C4",
";+	c #6C6CDC",
">+	c #2323F3",
",+	c #2525F3",
"'+	c #7373D9",
")+	c #C0C0C0",
"!+	c #7979D7",
"~+	c #8E8E71",
"{+	c #EFEF10",
"]+	c #6D6DDB",
"^+	c #B1B1C5",
"/+	c #0505FD",
"(+	c #9B9BCC",
"_+	c #6666DD",
":+	c #8F8F70",
"<+	c #2424F3",
"[+	c #5757E2",
"}+	c #1313F9",
"|+	c #1A1AF7",
"1+	c #1A1AF6",
"2+	c #F2F20D",
"3+	c #F1F10E",
"4+	c #1B1BF6",
"5+	c #BFBFC0",
"6+	c #2424DB",
"7+	c #999966",
"8+	c #FCFC03",
"9+	c #94946B",
"0+	c #7272DA",
"a+	c #7272D9",
"b+	c #989867",
"c+	c #FEFE01",
"d+	c #FBFB04",
"e+	c #93936C",
"f+	c #7D7D82",
"g+	c #D1D12E",
"h+	c #D5D52A",
"i+	c #3434EE",
"j+	c #5A5AE1",
"k+	c #3636ED",
"l+	c #4646B9",
"m+	c #74748B",
"n+	c #7F7F80",
"o+	c #60609F",
"p+	c #0404FB",
"                                . . . . . . . . . . . . . . . . .                               ",
"                                . . . . . . . . . . . . . . . . .                               ",
"                              . . . . . . . . . . . . . . . . . . .                             ",
"                      . .   . . . . . . . . . . . . . . . . . . . . .   . .                     ",
"                    . . . . . . . . . . . . . . . . . . . . . . . . . . . . .                   ",
"                  . . . . . . . . . . . . . . . . . . . . . . . . . . . . . . .                 ",
"                . . . . . . . . . . . . . . . . . . . . . . . . . . . . . . . . .               ",
"              . . . . . . . . . . . . . . . . . . . . . . . . . . . . . . . . . . .             ",
"            . . . . . . . . . . . . . . . . . . . . . . . . . . . . . . . . . . . . .           ",
"          . . . . . . . . . . . . . . . . . . . . . . . . . . . . . . . . . . . . . . .         ",
"        . . . . . . . . . . . . . . . . . . . . . . . . . . . . . . . . . . . . . . . . .       ",
"      . . . . . . . . . . . . . . . . . . . . . . . . . . . . . . . . . . . . . . . . . . .     ",
"      . . . . . + + . . + + . . . . . . . . . . . . + + . . + + . . . . . . + @ # . . . . .     ",
"        . . . . + + . . + + . . . . . . . . . . . . + + . . + + . . . . . . + @ # . . . .       ",
"      $ % & * + . . . . . . + = - ; = @ @ = ; - = + . . . . . . + = - ; > , . . . # ' ) ! ~     ",
"    $ { ] ^ / + . . . . . . + ( _ : < [ [ < : _ ( + . . . . . . + ( _ } | 1 . . . 2 3 4 5 6 7   ",
". . 8 9 0 a _ = . . . . . . = b c d e > > e d c b = . . . . . . = b c f ] $ . . . g h i j k l . ",
". . 8 m n o p < q . . . . q < r s t u v v w x y z < q . . . . q < z y A B C . . D E F G H I l . ",
". . % J K L M N O P . . P O N M Q R S > T U V W X Y Z P . . P Z Y X W `  ...+.@.#.$.%.G &.*.! . ",
". . $ =.-.L L ;.>.,.. . ,.>.;.L Q M ^ = 1 '.).W !.~.{.].. . ].{.~.!.W ^./.(._.:.<.G G G [.}.~ . ",
". . $ S |.1.2.3.4.5.6.6.5.4.3.2.1.7.e > q 8.>.;.9.0.R a.6.6.a.R 0.9.;.b.c.d.e.f.g.G G G h.5 ~ . ",
". . i.j.|.1.k.2.l.m.5.5.m.l.2.k.1.7._ n.. P Z o.M p.1.a a.a.a 1.p.M o.q.r.s.t.u.v.w.x.G y.z.! . ",
". . $ S |.L 0.A.B.~.C.C.~.B.A.0.L |.j.; . . D.E.N ~.!.y F.F.y !.~.N E.q . . G.H.I.J.K.&.L.M.l . ",
". . $ ] M N.O.-.P.n Q.Q.n P.-.O.N.M =.% . . . R.O S.K T.Q.Q.T.K S.O R.. . . . . . U.k L.V.W.X.. ",
". . % 9 Y.O.Z.U `. +1.1. +`.U Z.O..+U 8 . . . . ++@+#+$+%+%+$+#+@+++. . . . . . . &+z.L.V.W.X.. ",
". . 8 *+=+-+;+>+,+'+)+)+'+,+>+;+-+=+*+8 . . . . . R.E.!+K K !+E.R.. . . . . . . . ~ ~+{+{+W.X.. ",
". . 8 ]+-+^+} /++ @+(+(+@++ /+} ^+-+]+8 . . . . . . v _+=+=+_+v . . . + + . . . . X.:+{+{+:+X.. ",
". . 8 ]+-+^+S q . <+[+[+<+. q S ^+-+]+8 . . . . . . 1 9 =+=+9 1 . . . + + . . . . X.:+{+{+:+X.. ",
". . 8 ;+).=+J ; . . }+}+. . ; J =+).;+8 . . . . . . $ *+).).*+$ . . . . . . . . . X.:+{+{+:+X.. ",
". . |+]+4.4.m 1+. . . . . . 1+m 4.4.]+|+. . . . . . |+]+4.4.]+|+. . . . . . . . . X.I 2+3+W.X.. ",
". . 4+'+5+5+#+P . . . . . . P #+5+5+'+4+. . . . . . 4+'+5+5+'+4+. . . . . . . . . 6+7+G 8+9+X.. ",
". . 4+0+O.O.a+4+. . . . . . 4+a+O.O.0+4+. . . . . . 4+0+O.O.0+4+. . . . . . . . . 6+b+c+d+e+X.. ",
". . ; j. + +S ; . . . . . . ; S  + +S ; . . . . . . ; S  + +S ; . . . . . . . . . 7 f+g+h+z.l . ",
". . = i+b j+k+> . . . . . . > k+j+j+k+> . . . . . . > k+j+j+k+> . . . . . . . . . I.l+m+n+o+7   ",
". . , > ; ; > , . . . . . . , > ; ; > , . . . . . . , > ; ; > , . . . . . . . . . p+g ) ! ~     ",
"+ + . . . . . . + + . . + + . . . . . . + + . . + + . . . . . . + + . . . . . # # . . . .       ",
"    . . . . . . + + . . + + . . . . . . + + . . + + . . . . . . + + . . . . . # # . . . . .     ",
"      . . . . . . . . . . . . . . . . . . . . . . . . . . . . . . . . . . . . . . . . . . .     ",
"        . . . . . . . . . . . . . . . . . . . . . . . . . . . . . . . . . . . . . . . . .       ",
"          . . . . . . . . . . . . . . . . . . . . . . . . . . . . . . . . . . . . . . .         ",
"            . . . . . . . . . . . . . . . . . . . . . . . . . . . . . . . . . . . . .           ",
"              . . . . . . . . . . . . . . . . . . . . . . . . . . . . . . . . . . .             ",
"                . . . . . . . . . . . . . . . . . . . . . . . . . . . . . . . . .               ",
"                  . . . . . . . . . . . . . . . . . . . . . . . . . . . . . . .                 ",
"                    . . . . . . . . . . . . . . . . . . . . . . . . . . . . .                   ",
"                      . .   . . . . . . . . . . . . . . . . . . . . .   . .                     ",
"                              . . . . . . . . . . . . . . . . . . .                             ",
"                                . . . . . . . . . . . . . . . . .                               "};
