/* XPM */
static const char * build_xpm[] = {
"16 16 4 1",
" 	c None",
".	c #000000",
"+	c #FFFFFF",
"@	c #4040FF",
"                ",
"                ",
" ....   ..   .. ",
" .++.@@@.+ @@.+ ",
" .++.   .. @ .. ",
" .++.      @    ",
" .++.@@@@@@@    ",
" .++.           ",
" .++.   ..   .. ",
" .++.@@@.+ @@.+ ",
" .++.   .. @ .. ",
" .++.      @    ",
" .++.@@@@@@@    ",
" ....           ",
"                ",
"                "};
