/* XPM */
static const char * devbut_xpm[] = {
"16 16 3 1",
" 	c None",
".	c #000000",
"+	c #FF0000",
"                ",
"                ",
"     ......     ",
"    .      .    ",
"   .  ++++  .   ",
"  .  ++++++  .  ",
"  . ++++++++ .  ",
"  . ++++++++ .  ",
"  . ++++++++ .  ",
"  . ++++++++ .  ",
"  .  ++++++  .  ",
"   .  ++++  .   ",
"    .      .    ",
"     ......     ",
"                ",
"                "};
