/* XPM */
static const char * devled_xpm[] = {
"16 16 3 1",
" 	c None",
".	c #000000",
"+	c #FFFF00",
"                ",
"                ",
"     .....      ",
"    .+++++.     ",
"   .+++++++.    ",
"   .+++++++.    ",
"   .+++++++.    ",
"   .+++++++.    ",
"   .+++++++.    ",
"   .+++++++.    ",
"   .+++++++.    ",
"   ..........   ",
"    .     .     ",
"    .     .     ",
"    .     .     ",
"                "};
