/* XPM */
static char * exit_xpm[] = {
"16 16 8 1",
" 	c None",
".	c #000000",
"+	c #008000",
"@	c #0000FF",
"#	c #000080",
"$	c #00FFFF",
"%	c #FFFFFF",
"&	c #808080",
"     ......     ",
"     .++++.     ",
"     ......     ",
"                ",
"   ..........   ",
"   .@#@.$%$%.   ",
"   .#@#.%$%$.   ",
"   .@#@.$%$%.   ",
"   .#@#.%$%$.   ",
"   .@#@.%%%%.   ",
"   .#@#.%%%%.   ",
"   .@#..&&&&.   ",
"......&&&&&&....",
"&&&&&&&&&&&&&&&&",
"&&&&&&&&&&&&&&&&",
"                "};
