/* XPM */
static const char * gear_xpm[] = {
"16 16 4 1",
" 	c None",
".	c #C2C5C4",
"+	c #EFF2F0",
"@	c #9B9E9D",
"                ",
"     .+  +      ",
"     .++++      ",
"   ++++++++++   ",
"   +++++++++.   ",
" ..+++.@@++++.  ",
" ++++.    ++++. ",
"  +++@     ++.  ",
"  +++@    .++.  ",
" +++++    ++++. ",
"   ++++..+++.   ",
"   +++++++++.   ",
"   +.+++++..+   ",
"     .+@.+      ",
"      .  .      ",
"                "};
