/* XPM */
static char * option_xpm[] = {
"16 16 4 1",
" 	c None",
".	c #00FFFF",
"+	c #000000",
"@	c #FFFFFF",
"................",
"................",
".....++++++++...",
"....+@+@@@@@+...",
"...+@@+@@@@@+...",
"...++++@+++@+...",
"...+@@@@@@@@+...",
"...+@+@++++@+...",
"...+@@@@@@@@+...",
"...+@+@++++@+...",
"...+@@@@@@@@+...",
"...+@+@++++@+...",
"...+@@@@@@@@+...",
"...++++++++++...",
"................",
"................"};
