/* XPM */
static const char * simx_xpm[] = {
"16 16 4 1",
" 	c None",
".	c #FFFFFF",
"+	c #0000FF",
"@	c #000000",
"................",
"................",
".++++++++++++++.",
"................",
"................",
".@@@@.@@@.@@.@@.",
".@.....@..@.@.@.",
".@@@@..@..@.@.@.",
"....@..@..@...@.",
".@@@@.@@@.@...@.",
"................",
"................",
"................",
".++++++++++++++.",
"................",
"................"};
