/* XPM */
static const char * target_xpm[] = {
"16 16 5 1",
" 	c None",
".	c #FF0000",
"+	c #FFFFFF",
"@	c #0000FF",
"#	c #000000",
"                ",
"       ....     ",
"  ......++..    ",
"  .++++@+++..   ",
"  .++++@++++.   ",
"  .+++#@#+++.   ",
" .+++#+@+#++..  ",
" .++#++@++#++.. ",
" .+@@@@@@@@@@+. ",
"  ..#++@++#+++. ",
"   .+#+@+#++++. ",
"   .++#@#+++... ",
"   .+++@++++.   ",
"   .++.......   ",
"   ....         ",
"                "};
